<svg width="62" height="70" viewBox="0 0 62 70" fill="none" xmlns="http://www.w3.org/2000/svg">
<g clip-path="url(#clip0_189_1938)">
<path d="M18.4694 30.42H6.08447V53.0905C6.08447 55.6267 8.11341 57.6533 10.6472 57.6533H14.7756C15.7172 57.6533 16.6589 58.0149 17.3822 58.7406C18.1055 59.4638 18.4694 60.4055 18.4694 61.3472V65.3299C18.4694 67.8661 20.4984 69.8927 23.0322 69.8927H38.6766C41.2128 69.8927 43.2394 67.8637 43.2394 65.3299V61.056C43.2394 60.1143 43.601 59.2454 44.2539 58.5926C44.9067 57.9398 45.7756 57.5781 46.6444 57.5781H50.9911C53.5273 57.5781 55.5539 55.5492 55.5539 53.0154V30.3448H43.1689V54.3915C43.1689 55.2604 42.8073 56.0564 42.2273 56.6365C41.6472 57.2165 40.8512 57.5781 39.9823 57.5781H21.2945C20.4984 57.5781 19.7728 57.2893 19.2655 56.7093C18.6855 56.1292 18.3966 55.406 18.3966 54.6099V30.3448L18.4694 30.4176V30.42Z" fill="#c2f282"/>
<path d="M57.2916 12.385H40.4167C39.5478 12.385 38.7518 12.0233 38.0989 11.4433C37.4461 10.7905 37.0845 9.9944 37.0845 9.12552V0H29.2623C26.7261 0 24.6995 2.02894 24.6995 4.56276V9.9216C24.6995 10.356 24.4811 10.7905 24.1923 11.1521L23.8306 11.5138C23.2506 12.0938 22.5273 12.3826 21.7312 12.3826H4.56276C2.02659 12.3826 0 14.4116 0 16.8726V24.5492H24.7699V15.9309C24.7699 14.9892 25.1316 14.0476 25.8572 13.3947C26.51 12.7419 27.3789 12.3803 28.3206 12.3803H33.8978C34.7667 12.3803 35.5628 12.7419 36.2156 13.3219C36.8684 13.9748 37.2301 14.7709 37.2301 15.6397V24.5492H62V16.8726C62 14.4092 59.9711 12.3826 57.4372 12.3826H57.2916V12.385Z" fill="#c2f282"/>
</g>
<defs>
<clipPath id="clip0_189_1938">
<rect width="62" height="69.895" fill="white"/>
</clipPath>
</defs>
</svg>
